<svg width="39" height="24" viewBox="0 0 39 24" fill="none" xmlns="http://www.w3.org/2000/svg">
<path d="M2.86467 22.7813C2.34383 23.1632 1.80564 23.2066 1.25008 22.9115C0.694526 22.6163 0.416748 22.1563 0.416748 21.5313V2.46875C0.416748 1.84375 0.694526 1.38368 1.25008 1.08854C1.80564 0.793403 2.34383 0.836805 2.86467 1.21875L16.5626 10.6979C17.0487 11.0104 17.2917 11.4444 17.2917 12C17.2917 12.5556 17.0487 12.9896 16.5626 13.3021L2.86467 22.7813ZM24.0626 22.7813C23.5417 23.1632 23.0036 23.2066 22.448 22.9115C21.8924 22.6163 21.6147 22.1563 21.6147 21.5313V2.46875C21.6147 1.84375 21.8924 1.38368 22.448 1.08854C23.0036 0.793403 23.5417 0.836805 24.0626 1.21875L37.7605 10.6979C38.2466 11.0104 38.4897 11.4444 38.4897 12C38.4897 12.5556 38.2466 12.9896 37.7605 13.3021L24.0626 22.7813Z" fill="black"/>
</svg>
