<svg width="47" height="39" viewBox="0 0 47 39" fill="none" xmlns="http://www.w3.org/2000/svg">
<path d="M7.04482 15.6069L7.5 16.6083L7.95518 15.6069L8.87759 13.5776L10.9069 12.6552L11.9083 12.2L10.9069 11.7448L8.87759 10.8224L7.95518 8.79312L7.5 7.79172L7.04482 8.79312L6.12241 10.8224L4.0931 11.7448L3.0917 12.2L4.0931 12.6552L6.12241 13.5776L7.04482 15.6069ZM29.0474 13.0626L29.5 14.0261L29.9526 13.0626L31.4259 9.92589L34.5626 8.45259L35.5261 8.00002L34.5626 7.54746L31.4259 6.07416L29.9526 2.93746L29.5 1.97393L29.0474 2.93746L27.5741 6.07416L24.4374 7.54746L23.4739 8.00002L24.4374 8.45259L27.5741 9.92589L29.0474 13.0626ZM2.17145 36.8286C2.94858 37.6057 3.90077 38 5 38C6.09923 38 7.05142 37.6057 7.82855 36.8286C8.60569 36.0514 9 35.0993 9 34C9 33.8167 8.99083 33.6334 8.97252 33.4503C8.95946 33.3196 8.93462 33.1713 8.89981 33.0073L18.527 23.3802C18.7612 23.4132 18.9517 23.4393 19.0978 23.4583C19.2699 23.4808 19.4252 23.5 19.5 23.5C19.6834 23.5 19.8666 23.4909 20.0498 23.4725C20.1804 23.4595 20.3287 23.4346 20.4927 23.3998L25.6002 28.5073C25.5654 28.6713 25.5405 28.8196 25.5275 28.9503C25.5092 29.1334 25.5 29.3167 25.5 29.5C25.5 30.5993 25.8943 31.5514 26.6714 32.3286C27.4486 33.1057 28.4008 33.5 29.5 33.5C30.5992 33.5 31.5514 33.1057 32.3286 32.3286C33.1057 31.5514 33.5 30.5993 33.5 29.5C33.5 29.3167 33.4908 29.1334 33.4725 28.9503C33.4595 28.8196 33.4346 28.6713 33.3998 28.5073L41.0073 20.8998C41.1712 20.9346 41.3196 20.9595 41.4502 20.9725C41.6334 20.9909 41.8166 21 42 21C43.0992 21 44.0514 20.6057 44.8286 19.8286C45.6057 19.0514 46 18.0993 46 17C46 15.9008 45.6057 14.9486 44.8286 14.1715C44.0514 13.3943 43.0992 13 42 13C40.9008 13 39.9486 13.3943 39.1714 14.1715C38.3943 14.9486 38 15.9008 38 17C38 17.1834 38.0092 17.3667 38.0275 17.5498C38.0405 17.6804 38.0654 17.8288 38.1002 17.9927L30.4927 25.6002C30.3287 25.5654 30.1804 25.5406 30.0498 25.5275C29.8666 25.5092 29.6834 25.5 29.5 25.5C29.3166 25.5 29.1334 25.5092 28.9502 25.5275C28.8196 25.5406 28.6713 25.5654 28.5073 25.6002L23.3801 20.4731C23.4132 20.2388 23.4392 20.0484 23.4583 19.9022C23.4807 19.7301 23.5 19.5748 23.5 19.5C23.5 18.4008 23.1057 17.4486 22.3286 16.6715C21.5514 15.8943 20.5992 15.5 19.5 15.5C18.4008 15.5 17.4486 15.8943 16.6714 16.6715C15.8943 17.4486 15.5 18.4008 15.5 19.5C15.5 19.6834 15.5092 19.8667 15.5275 20.0498C15.5405 20.1804 15.5654 20.3288 15.6002 20.4927L5.9927 30.1002C5.82875 30.0654 5.68039 30.0406 5.54975 30.0275C5.36664 30.0092 5.18337 30 5 30C3.90077 30 2.94858 30.3943 2.17145 31.1715C1.39431 31.9486 1 32.9008 1 34C1 35.0993 1.39431 36.0514 2.17145 36.8286Z" fill="#707070" stroke="#707070"/>
</svg>
