<svg width="46" height="38" viewBox="0 0 46 38" fill="none" xmlns="http://www.w3.org/2000/svg">
<path d="M6.54482 14.9569L7 15.9583L7.45518 14.9569L8.37759 12.9276L10.4069 12.0052L11.4083 11.55L10.4069 11.0948L8.37759 10.1724L7.45518 8.1431L7 7.1417L6.54482 8.1431L5.62241 10.1724L3.5931 11.0948L2.5917 11.55L3.5931 12.0052L5.62241 12.9276L6.54482 14.9569ZM28.5474 12.4126L29 13.3761L29.4526 12.4126L30.9259 9.27587L34.0626 7.80256L35.0261 7.35L34.0626 6.89744L30.9259 5.42413L29.4526 2.28743L29 1.32391L28.5474 2.28743L27.0741 5.42413L23.9374 6.89744L22.9739 7.35L23.9374 7.80256L27.0741 9.27587L28.5474 12.4126ZM1.67145 36.1786C2.44858 36.9557 3.40077 37.35 4.5 37.35C5.59923 37.35 6.55142 36.9557 7.32855 36.1786C8.10569 35.4014 8.5 34.4492 8.5 33.35C8.5 33.1666 8.49083 32.9834 8.47252 32.8002C8.45946 32.6696 8.43462 32.5213 8.39981 32.3573L18.027 22.7301C18.2612 22.7632 18.4517 22.7892 18.5978 22.8083C18.7699 22.8307 18.9252 22.85 19 22.85C19.1834 22.85 19.3666 22.8408 19.5498 22.8225C19.6804 22.8095 19.8287 22.7846 19.9927 22.7498L25.1002 27.8573C25.0654 28.0213 25.0405 28.1696 25.0275 28.3002C25.0092 28.4834 25 28.6666 25 28.85C25 29.9492 25.3943 30.9014 26.1714 31.6786C26.9486 32.4557 27.9008 32.85 29 32.85C30.0992 32.85 31.0514 32.4557 31.8286 31.6786C32.6057 30.9014 33 29.9492 33 28.85C33 28.6666 32.9908 28.4834 32.9725 28.3002C32.9595 28.1696 32.9346 28.0213 32.8998 27.8573L40.5073 20.2498C40.6712 20.2846 40.8196 20.3095 40.9502 20.3225C41.1334 20.3408 41.3166 20.35 41.5 20.35C42.5992 20.35 43.5514 19.9557 44.3286 19.1786C45.1057 18.4014 45.5 17.4492 45.5 16.35C45.5 15.2508 45.1057 14.2986 44.3286 13.5214C43.5514 12.7443 42.5992 12.35 41.5 12.35C40.4008 12.35 39.4486 12.7443 38.6714 13.5214C37.8943 14.2986 37.5 15.2508 37.5 16.35C37.5 16.5334 37.5092 16.7166 37.5275 16.8998C37.5405 17.0304 37.5654 17.1788 37.6002 17.3427L29.9927 24.9502C29.8287 24.9154 29.6804 24.8905 29.5498 24.8775C29.3666 24.8592 29.1834 24.85 29 24.85C28.8166 24.85 28.6334 24.8592 28.4502 24.8775C28.3196 24.8905 28.1713 24.9154 28.0073 24.9502L22.8801 19.823C22.9132 19.5888 22.9392 19.3983 22.9583 19.2522C22.9807 19.0801 23 18.9248 23 18.85C23 17.7508 22.6057 16.7986 21.8286 16.0214C21.0514 15.2443 20.0992 14.85 19 14.85C17.9008 14.85 16.9486 15.2443 16.1714 16.0214C15.3943 16.7986 15 17.7508 15 18.85C15 19.0334 15.0092 19.2166 15.0275 19.3998C15.0405 19.5304 15.0654 19.6787 15.1002 19.8427L5.4927 29.4502C5.32875 29.4154 5.18039 29.3905 5.04975 29.3775C4.86664 29.3592 4.68337 29.35 4.5 29.35C3.40077 29.35 2.44858 29.7443 1.67145 30.5214C0.894314 31.2986 0.5 32.2508 0.5 33.35C0.5 34.4492 0.894314 35.4014 1.67145 36.1786Z" fill="#1DB954" stroke="#1DB954"/>
</svg>
