<svg width="43" height="42" viewBox="0 0 43 42" fill="none" xmlns="http://www.w3.org/2000/svg">
<path d="M10.4096 31.8607V32.3607H10.9096H14.1984H14.6984V31.8607V20.6237V20.1237H14.1984H10.9096H10.4096V20.6237V31.8607ZM28.6081 31.8607V32.3607H29.1081H32.397H32.897V31.8607V8.83852V8.33852H32.397H29.1081H28.6081V8.83852V31.8607ZM19.5088 31.8607V32.3607H20.0088H23.2977H23.7977V31.8607V25.3926V24.8926H23.2977H20.0088H19.5088V25.3926V31.8607ZM19.5088 20.6237V21.1237H20.0088H23.2977H23.7977V20.6237V17.3348V16.8348H23.2977H20.0088H19.5088V17.3348V20.6237ZM2.55303 39.8336C3.29827 40.5788 4.1905 40.9667 5.20881 40.9667H38.0977C39.116 40.9667 40.0082 40.5788 40.7535 39.8336C41.4987 39.0883 41.8866 38.1961 41.8866 37.1778V4.28889C41.8866 3.27057 41.4987 2.37835 40.7535 1.63311C40.0082 0.887881 39.116 0.5 38.0977 0.5H5.20881C4.1905 0.5 3.29827 0.88788 2.55304 1.63311C1.8078 2.37835 1.41992 3.27058 1.41992 4.28889V37.1778C1.41992 38.1961 1.8078 39.0883 2.55303 39.8336ZM37.5977 4.78889V36.6778H5.70881V4.78889H37.5977Z" fill="#1DB954" stroke="#1DB954"/>
</svg>
