<svg width="42" height="42" viewBox="0 0 42 42" fill="none" xmlns="http://www.w3.org/2000/svg">
<path d="M9.75623 32.3607V32.8607H10.2562H13.5451H14.0451V32.3607V21.1237V20.6237H13.5451H10.2562H9.75623V21.1237V32.3607ZM27.9548 32.3607V32.8607H28.4548H31.7436H32.2436V32.3607V9.33852V8.83852H31.7436H28.4548H27.9548V9.33852V32.3607ZM18.8555 32.3607V32.8607H19.3555H22.6444H23.1444V32.3607V25.8926V25.3926H22.6444H19.3555H18.8555V25.8926V32.3607ZM18.8555 21.1237V21.6237H19.3555H22.6444H23.1444V21.1237V17.8348V17.3348H22.6444H19.3555H18.8555V17.8348V21.1237ZM1.89971 40.3336C2.64495 41.0788 3.53718 41.4667 4.55549 41.4667H37.4444C38.4627 41.4667 39.3549 41.0788 40.1002 40.3336C40.8454 39.5883 41.2333 38.6961 41.2333 37.6778V4.78889C41.2333 3.77057 40.8454 2.87835 40.1002 2.13311C39.3549 1.38788 38.4627 1 37.4444 1H4.55549C3.53718 1 2.64495 1.38788 1.89972 2.13311C1.15448 2.87835 0.766602 3.77058 0.766602 4.78889V37.6778C0.766602 38.6961 1.15448 39.5883 1.89971 40.3336ZM36.9444 5.28889V37.1778H5.05549V5.28889H36.9444Z" fill="#707070" stroke="#707070"/>
</svg>
