<svg width="42" height="42" viewBox="0 0 42 42" fill="none" xmlns="http://www.w3.org/2000/svg">
<path d="M13.9511 22.8794H13.4511V23.3794V36.8759H5.20031V15.8059L20.735 5.22905L36.2697 15.8059V36.8759H28.0189V23.3794V22.8794H27.5189H13.9511ZM23.3186 40.735V41.235H23.8186H36.7697C37.914 41.235 38.9097 40.8673 39.7268 40.1255C40.5458 39.382 40.97 38.4564 40.97 37.3759V15.5414C40.97 14.9294 40.8125 14.3431 40.5071 13.7886L40.0691 14.0298L40.5071 13.7886C40.2022 13.2351 39.7884 12.7828 39.2684 12.4388C39.2674 12.4382 39.2664 12.4375 39.2654 12.4368L23.2366 1.52354C22.867 1.27188 22.4716 1.0815 22.0516 0.954403C21.6317 0.827347 21.1921 0.765015 20.735 0.765015C20.2779 0.765015 19.8383 0.827347 19.4184 0.954403C18.9984 1.0815 18.603 1.27188 18.2334 1.52354L2.20159 12.4388C1.6816 12.7828 1.26775 13.2351 0.962904 13.7886C0.657491 14.3431 0.5 14.9294 0.5 15.5414V37.3759C0.5 38.4564 0.924184 39.382 1.74318 40.1255C2.56035 40.8673 3.55604 41.235 4.70031 41.235H17.6514H18.1514V40.735V27.2386H23.3186V40.735Z" fill="#1DB954" stroke="#1DB954"/>
</svg>
