<svg width="30" height="30" viewBox="0 0 30 30" fill="none" xmlns="http://www.w3.org/2000/svg">
<path d="M20.4688 29.5833C19.6008 29.5833 18.8629 29.2795 18.2553 28.6719C17.6476 28.0642 17.3438 27.3264 17.3438 26.4583V3.54167C17.3438 2.67361 17.6476 1.93576 18.2553 1.32812C18.8629 0.720485 19.6008 0.416666 20.4688 0.416666H26.4584C27.3265 0.416666 28.0643 0.720485 28.672 1.32812C29.2796 1.93576 29.5834 2.67361 29.5834 3.54167V26.4583C29.5834 27.3264 29.2796 28.0642 28.672 28.6719C28.0643 29.2795 27.3265 29.5833 26.4584 29.5833H20.4688ZM3.54175 29.5833C2.67369 29.5833 1.93585 29.2795 1.32821 28.6719C0.720567 28.0642 0.416748 27.3264 0.416748 26.4583V3.54167C0.416748 2.67361 0.720567 1.93576 1.32821 1.32812C1.93585 0.720485 2.67369 0.416666 3.54175 0.416666H9.53133C10.3994 0.416666 11.1372 0.720485 11.7449 1.32812C12.3525 1.93576 12.6563 2.67361 12.6563 3.54167V26.4583C12.6563 27.3264 12.3525 28.0642 11.7449 28.6719C11.1372 29.2795 10.3994 29.5833 9.53133 29.5833H3.54175Z" fill="black"/>
</svg>
