<svg width="39" height="24" viewBox="0 0 39 24" fill="none" xmlns="http://www.w3.org/2000/svg">
<path d="M36.0833 22.7813L22.3854 13.3021C21.8993 12.9896 21.6562 12.5556 21.6562 12C21.6562 11.4444 21.8993 11.0104 22.3854 10.6979L36.0833 1.21875C36.6042 0.836805 37.1424 0.793403 37.6979 1.08854C38.2535 1.38368 38.5313 1.84375 38.5313 2.46875V21.5313C38.5313 22.1563 38.2535 22.6163 37.6979 22.9115C37.1424 23.2066 36.6042 23.1632 36.0833 22.7813ZM15.1458 22.7813L1.44792 13.3021C0.961806 12.9896 0.71875 12.5556 0.71875 12C0.71875 11.4444 0.961806 11.0104 1.44792 10.6979L15.1458 1.21875C15.6667 0.836805 16.2049 0.793403 16.7604 1.08854C17.316 1.38368 17.5938 1.84375 17.5938 2.46875V21.5313C17.5938 22.1563 17.316 22.6163 16.7604 22.9115C16.2049 23.2066 15.6667 23.1632 15.1458 22.7813Z" fill="black"/>
</svg>
