<svg width="53" height="53" viewBox="0 0 53 53" fill="none" xmlns="http://www.w3.org/2000/svg">
<path d="M26.5 41.0088C29.415 41.0088 32.0981 40.2248 34.5494 38.6569C37.0006 37.089 38.7783 34.9579 39.8825 32.2638H13.1175C14.2658 34.9579 16.0546 37.089 18.4838 38.6569C20.9129 40.2248 23.585 41.0088 26.5 41.0088ZM14.7075 22.9888L17.6888 20.0075L20.67 22.9888L23.055 20.6038L17.6888 15.2375L12.3225 20.6038L14.7075 22.9888ZM32.3963 22.9888L35.3775 20.0075L38.3588 22.9888L40.7438 20.6038L35.3775 15.2375L30.0113 20.6038L32.3963 22.9888ZM26.5 53C22.8342 53 19.3892 52.3044 16.165 50.9131C12.9408 49.5219 10.1363 47.6338 7.75125 45.2488C5.36625 42.8638 3.47812 40.0592 2.08687 36.835C0.695625 33.6108 0 30.1658 0 26.5C0 22.8342 0.695625 19.3892 2.08687 16.165C3.47812 12.9408 5.36625 10.1363 7.75125 7.75125C10.1363 5.36625 12.9408 3.47812 16.165 2.08687C19.3892 0.695625 22.8342 0 26.5 0C30.1658 0 33.6108 0.695625 36.835 2.08687C40.0592 3.47812 42.8638 5.36625 45.2488 7.75125C47.6338 10.1363 49.5219 12.9408 50.9131 16.165C52.3044 19.3892 53 22.8342 53 26.5C53 30.1658 52.3044 33.6108 50.9131 36.835C49.5219 40.0592 47.6338 42.8638 45.2488 45.2488C42.8638 47.6338 40.0592 49.5219 36.835 50.9131C33.6108 52.3044 30.1658 53 26.5 53ZM26.5 49.025C32.7717 49.025 38.0938 46.8387 42.4663 42.4663C46.8387 38.0938 49.025 32.7717 49.025 26.5C49.025 20.2283 46.8387 14.9062 42.4663 10.5338C38.0938 6.16125 32.7717 3.975 26.5 3.975C20.2283 3.975 14.9062 6.16125 10.5338 10.5338C6.16125 14.9062 3.975 20.2283 3.975 26.5C3.975 32.7717 6.16125 38.0938 10.5338 42.4663C14.9062 46.8387 20.2283 49.025 26.5 49.025Z" fill="#1DB954"/>
</svg>
