<svg width="53" height="53" viewBox="0 0 53 53" fill="none" xmlns="http://www.w3.org/2000/svg">
<path d="M26.5 53C22.8342 53 19.3892 52.3044 16.165 50.9131C12.9408 49.5219 10.1363 47.6227 7.75125 45.2156C5.36625 42.8085 3.47812 39.9929 2.08687 36.7688C0.695625 33.5446 0 30.1217 0 26.5C0 22.8342 0.695625 19.3892 2.08687 16.165C3.47812 12.9408 5.36625 10.1363 7.75125 7.75125C10.1363 5.36625 12.9408 3.47812 16.165 2.08687C19.3892 0.695625 22.8342 0 26.5 0C30.1658 0 33.5998 0.695625 36.8019 2.08687C40.004 3.47812 42.8085 5.36625 45.2156 7.75125C47.6227 10.1363 49.5219 12.9408 50.9131 16.165C52.3044 19.3892 53 22.8342 53 26.5C53 30.1217 52.3044 33.5446 50.9131 36.7688C49.5219 39.9929 47.6227 42.8085 45.2156 45.2156C42.8085 47.6227 40.004 49.5219 36.8019 50.9131C33.5998 52.3044 30.1658 53 26.5 53ZM26.5 49.025C32.7275 49.025 38.0385 46.8277 42.4331 42.4331C46.8277 38.0385 49.025 32.7275 49.025 26.5C49.025 20.2283 46.8277 14.9062 42.4331 10.5338C38.0385 6.16125 32.7275 3.975 26.5 3.975C20.2283 3.975 14.9062 6.16125 10.5338 10.5338C6.16125 14.9062 3.975 20.2283 3.975 26.5C3.975 32.7275 6.16125 38.0385 10.5338 42.4331C14.9062 46.8277 20.2283 49.025 26.5 49.025ZM31.3363 23.1213L32.2638 22.5912C32.3963 23.4746 32.7938 24.2033 33.4563 24.7775C34.1188 25.3517 34.8917 25.6388 35.775 25.6388C36.7908 25.6388 37.641 25.2965 38.3256 24.6119C39.0102 23.9273 39.3525 23.0771 39.3525 22.0613C39.3525 21.4871 39.231 20.9571 38.9881 20.4713C38.7452 19.9854 38.4029 19.5658 37.9613 19.2125L39.75 18.2188L38.425 15.9L30.0113 20.7362L31.3363 23.1213ZM21.6638 23.1213L22.9888 20.7362L14.575 15.9L13.25 18.2188L15.0388 19.2125C14.5971 19.5658 14.2548 19.9854 14.0119 20.4713C13.769 20.9571 13.6475 21.4871 13.6475 22.0613C13.6475 23.0771 13.9898 23.9273 14.6744 24.6119C15.359 25.2965 16.2092 25.6388 17.225 25.6388C18.1083 25.6388 18.8813 25.3517 19.5438 24.7775C20.2063 24.2033 20.6038 23.4746 20.7362 22.5912L21.6638 23.1213ZM26.5 29.3488C23.4525 29.3488 20.7804 30.3535 18.4838 32.3631C16.1871 34.3727 14.4646 36.835 13.3163 39.75H39.6838C38.4913 36.8792 36.7577 34.4279 34.4831 32.3963C32.2085 30.3646 29.5475 29.3488 26.5 29.3488Z" fill="#1DB954" fill-opacity="0.3"/>
</svg>
