<svg width="53" height="53" viewBox="0 0 53 53" fill="none" xmlns="http://www.w3.org/2000/svg">
<path d="M36.1725 22.9888C37.1883 22.9888 38.0385 22.6465 38.7231 21.9619C39.4077 21.2773 39.75 20.4271 39.75 19.4113C39.75 18.3954 39.4077 17.5452 38.7231 16.8606C38.0385 16.176 37.1883 15.8338 36.1725 15.8338C35.1567 15.8338 34.3065 16.176 33.6219 16.8606C32.9373 17.5452 32.595 18.3954 32.595 19.4113C32.595 20.4271 32.9373 21.2773 33.6219 21.9619C34.3065 22.6465 35.1567 22.9888 36.1725 22.9888ZM16.8275 22.9888C17.8433 22.9888 18.6935 22.6465 19.3781 21.9619C20.0627 21.2773 20.405 20.4271 20.405 19.4113C20.405 18.3954 20.0627 17.5452 19.3781 16.8606C18.6935 16.176 17.8433 15.8338 16.8275 15.8338C15.8117 15.8338 14.9615 16.176 14.2769 16.8606C13.5923 17.5452 13.25 18.3954 13.25 19.4113C13.25 20.4271 13.5923 21.2773 14.2769 21.9619C14.9615 22.6465 15.8117 22.9888 16.8275 22.9888ZM19.8088 35.8413H33.3237C33.7654 35.8413 34.1408 35.6867 34.45 35.3775C34.7592 35.0683 34.9138 34.6708 34.9138 34.185C34.9138 33.6992 34.7702 33.3127 34.4831 33.0256C34.196 32.7385 33.8096 32.595 33.3237 32.595H19.7425C19.3008 32.595 18.9254 32.7385 18.6162 33.0256C18.3071 33.3127 18.1525 33.6992 18.1525 34.185C18.1525 34.6708 18.3071 35.0683 18.6162 35.3775C18.9254 35.6867 19.3229 35.8413 19.8088 35.8413ZM26.5 53C22.8783 53 19.4554 52.3044 16.2313 50.9131C13.0071 49.5219 10.1915 47.6227 7.78438 45.2156C5.37729 42.8085 3.47812 39.9929 2.08687 36.7688C0.695625 33.5446 0 30.0996 0 26.4338C0 22.8121 0.695625 19.3892 2.08687 16.165C3.47812 12.9408 5.37729 10.1363 7.78438 7.75125C10.1915 5.36625 13.0071 3.47812 16.2313 2.08687C19.4554 0.695625 22.9004 0 26.5662 0C30.1879 0 33.6108 0.695625 36.835 2.08687C40.0592 3.47812 42.8638 5.36625 45.2488 7.75125C47.6338 10.1363 49.5219 12.9408 50.9131 16.165C52.3044 19.3892 53 22.8342 53 26.5C53 30.1217 52.3044 33.5446 50.9131 36.7688C49.5219 39.9929 47.6338 42.8085 45.2488 45.2156C42.8638 47.6227 40.0592 49.5219 36.835 50.9131C33.6108 52.3044 30.1658 53 26.5 53ZM26.5 49.025C32.7717 49.025 38.0938 46.8277 42.4663 42.4331C46.8387 38.0385 49.025 32.7275 49.025 26.5C49.025 20.2283 46.8387 14.9062 42.4663 10.5338C38.0938 6.16125 32.7717 3.975 26.5 3.975C20.2725 3.975 14.9615 6.16125 10.5669 10.5338C6.17229 14.9062 3.975 20.2283 3.975 26.5C3.975 32.7275 6.17229 38.0385 10.5669 42.4331C14.9615 46.8277 20.2725 49.025 26.5 49.025Z" fill="#1DB954" fill-opacity="0.58"/>
</svg>
